<svg xmlns="http://www.w3.org/2000/svg" xmlns:xlink="http://www.w3.org/1999/xlink" version="1.1" x="0px" y="0px"
    viewBox="0 0 100 125" enable-background="new 0 0 100 100" xml:space="preserve">
    <g>
        <path fill="none"
            d="M18.993,42.898h14.098c0.739,0,1.347-0.607,1.347-1.347v-9.313c0-0.742-0.607-1.347-1.347-1.347H18.993   c-0.741,0-1.347,0.604-1.347,1.347v9.313C17.646,42.291,18.252,42.898,18.993,42.898z" >
        <path fill="none"
            d="M75.7,41.315c2.393,0,4.338-1.946,4.338-4.338s-1.945-4.338-4.338-4.338c-0.928,0-1.787,0.294-2.492,0.792   c-0.031,0.021-0.061,0.041-0.091,0.063c-0.01,0.007-0.02,0.015-0.029,0.022c-0.028,0.021-0.056,0.041-0.083,0.063   c-0.019,0.016-0.037,0.031-0.055,0.046c-0.005,0.004-0.01,0.009-0.015,0.013c-0.011,0.008-0.021,0.016-0.03,0.023   c-0.019,0.017-0.038,0.031-0.057,0.049c-0.025,0.021-0.05,0.043-0.074,0.064c-0.031,0.029-0.063,0.059-0.094,0.088   c-0.018,0.018-0.037,0.036-0.055,0.055c-0.049,0.047-0.096,0.097-0.141,0.146l0,0c0,0-0.001,0.002-0.002,0.002   c-0.026,0.029-0.051,0.062-0.077,0.092c0.001,0,0.001,0,0.002,0c-0.075,0.088-0.147,0.18-0.216,0.273l-0.001-0.002   c-0.026,0.037-0.052,0.074-0.078,0.112c-0.003,0.005-0.007,0.011-0.011,0.015c-0.058,0.085-0.113,0.17-0.165,0.26   c-0.009,0.014-0.017,0.029-0.024,0.045c0,0,0.002,0.001,0.002,0.002c-0.352,0.625-0.553,1.347-0.553,2.114   C71.362,39.369,73.309,41.315,75.7,41.315z M75.058,39.251c-0.084,0.121-0.261,0.308-0.27,0.484   c-0.01,0.176-0.12,0.344-0.242,0.362c-0.121,0.019-0.232,0.112-0.232,0.195c0,0.084-0.111,0.047-0.12,0.204   c-0.002,0.017-0.004,0.033-0.007,0.049c-0.743-0.338-1.357-0.906-1.754-1.613c-0.005-0.08,0.014-0.156,0.068-0.188   c0.003-0.002,0.006-0.004,0.01-0.005c0.102-0.046,0.055-0.187,0.157-0.214c0.102-0.027,0.037-0.139,0-0.214   c-0.02-0.04-0.095-0.037-0.167-0.037c-0.064-0.001-0.127-0.003-0.149-0.037c-0.046-0.075-0.056-0.288-0.214-0.288   c-0.033,0-0.063-0.007-0.091-0.018c-0.033-0.14-0.059-0.281-0.074-0.426c0.1-0.09,0.227-0.183,0.227-0.11   c0,0.093-0.099,0.404,0.041,0.404c0.139,0,0.046,0.103,0.103,0.196c0.04,0.066,0.1,0.119,0.158,0.133   c0.021,0.005,0.045,0.004,0.064-0.004c0.045-0.017,0.11-0.002,0.172,0c0.039,0.003,0.078,0,0.107-0.018   c0.073-0.047,0.149-0.14,0.186-0.047c0.006,0.014,0.015,0.025,0.023,0.033c0.034,0.03,0.093,0.031,0.15,0.029   c0.036-0.002,0.074-0.007,0.104-0.007c0.023,0,0.048-0.001,0.074-0.003c0.035-0.002,0.076-0.002,0.12,0.003   c0.057,0.008,0.119,0.025,0.188,0.065c0.046,0.026,0.089,0.057,0.13,0.085c0.103,0.071,0.193,0.138,0.28,0.138   c0.12,0,0.102,0.121,0.102,0.242s0.157,0.121,0.325,0.176c0.167,0.057,0.242,0.047,0.41,0.149   C75.104,39.076,75.142,39.131,75.058,39.251z M77.364,34.563c0.098-0.107,0.235-0.196,0.313-0.304   c0.038-0.051,0.1-0.136,0.169-0.213c0.03-0.035,0.063-0.067,0.095-0.096c0.134,0.093,0.262,0.193,0.381,0.303   c-0.04,0-0.083,0.02-0.095,0.064c-0.03,0.108-0.147,0.157-0.187,0.266c-0.04,0.107,0.107,0.205,0.028,0.283   c-0.078,0.079-0.106,0.167-0.176,0.167c-0.017,0-0.032,0.009-0.047,0.021c-0.049,0.037-0.087,0.104-0.109,0.028   c-0.03-0.097-0.089-0.206-0.158-0.157c-0.068,0.05-0.058,0.217-0.146,0.079C77.345,34.867,77.266,34.671,77.364,34.563z    M76.764,35.316c0.133-0.056-0.057-0.41,0.044-0.398c0.007-0.002,0.013-0.002,0.019-0.002c0.137-0.004,0.147,0.182,0.125,0.256   c-0.021,0.078,0.134,0.322-0.011,0.322c-0.04,0-0.079,0.012-0.114,0.027c-0.086,0.037-0.146,0.086-0.162-0.017   C76.641,35.361,76.63,35.372,76.764,35.316z M76.058,37.435c0.016-0.033,0.035-0.064,0.051-0.087   c0.004-0.005,0.007-0.01,0.011-0.016c0.044-0.083,0.075-0.289,0.166-0.298c0.099-0.011,0.167-0.118,0.167-0.207   c0-0.068,0.043-0.132,0.108-0.166c0.018-0.009,0.037-0.016,0.059-0.02c0.079-0.016,0.107-0.063,0.207-0.082   c0.024-0.004,0.053-0.006,0.087-0.006c0.056,0,0.099-0.01,0.138-0.021c0.022-0.007,0.044-0.015,0.063-0.023   c0.059-0.021,0.116-0.044,0.211-0.044c0.186,0,0.323-0.068,0.303,0.079c-0.016,0.125,0.118,0.165,0.219,0.211   c0.017,0.008,0.033,0.016,0.047,0.023c0.098,0.059,0.235,0.138,0.274,0.049c0.04-0.088,0.167-0.059,0.274-0.039   c0.108,0.02,0.294,0.059,0.393,0.049c0.098-0.01,0.196-0.098,0.206-0.186c0.009-0.088-0.128-0.107-0.294-0.107   c-0.167,0-0.236-0.029-0.206-0.128c0.029-0.099,0.078-0.187,0.166-0.226c0.089-0.039,0.167-0.059,0.256-0.059   c0.087,0,0.205,0.068,0.313,0.059s0.067-0.107-0.039-0.166c-0.108-0.06-0.128-0.148-0.079-0.197c0.05-0.049,0.02-0.098-0.068-0.049   c-0.089,0.049-0.216,0.177-0.244,0.098c-0.03-0.078-0.246-0.01-0.246,0.108s0.029,0.138-0.01,0.216s-0.128,0.137-0.206,0.127   s0.01,0.138-0.069,0.177c-0.078,0.04-0.117-0.059-0.166-0.157c-0.049-0.098-0.088-0.156-0.137-0.215s-0.079-0.089-0.147-0.147   c-0.007-0.005-0.012-0.01-0.018-0.014c-0.061-0.038-0.104,0-0.042,0.063c0.017,0.017,0.03,0.029,0.042,0.042   c0.039,0.039,0.065,0.057,0.125,0.057c0.079,0,0.04,0.137,0.02,0.195c-0.02,0.059-0.127,0.246-0.127,0.108   c0-0.068-0.003-0.127-0.018-0.173c-0.017-0.048-0.046-0.082-0.101-0.102c-0.107-0.039-0.127-0.147-0.284-0.147   c-0.156,0-0.343-0.039-0.313,0.069c0.026,0.098,0.013,0.188-0.034,0.203c-0.004,0.002-0.01,0.002-0.015,0.002   c-0.016,0-0.033,0.001-0.049,0.004c-0.042,0.006-0.075,0.025-0.068,0.075c0.009,0.068-0.021,0.059-0.069,0.098   c-0.023,0.019-0.054,0.04-0.087,0.051c-0.036,0.013-0.078,0.015-0.119-0.012c-0.039-0.024-0.098-0.017-0.146-0.016   s-0.089-0.003-0.089-0.053c0-0.099-0.069-0.138-0.02-0.226c0.049-0.088,0-0.177,0.098-0.177h0.011   c0.089,0.001,0.111,0.021,0.215,0.021c0.018,0,0.035-0.004,0.051-0.008c0.082-0.027,0.132-0.113,0.058-0.18   c-0.089-0.078-0.06-0.186-0.01-0.273c0.046-0.084,0.075-0.054,0.177-0.074c0.006-0.002,0.012-0.003,0.02-0.005   c0.016-0.004,0.029-0.009,0.044-0.014c0.103-0.038,0.2-0.112,0.26-0.173c0.068-0.068,0.05-0.215,0.127-0.215   c0.078,0,0.029,0.088,0.157,0.088c0.091,0,0.133-0.025,0.188-0.039c0.021-0.006,0.046-0.01,0.076-0.01   c0.108,0,0.187,0.088,0.265,0.02s-0.059-0.186,0.059-0.186s0.216,0.009,0.128-0.08c-0.088-0.088,0.03-0.039,0.128-0.088   s0.088-0.127-0.029-0.107s-0.216,0.088-0.265-0.029c-0.049-0.118,0.098-0.255,0.176-0.344c0.005-0.005,0.008-0.01,0.012-0.016   c0.725,0.695,1.178,1.672,1.178,2.753c0,1.325-0.681,2.489-1.709,3.173c-0.009-0.025-0.015-0.051-0.018-0.075   c-0.012-0.069-0.012-0.137-0.061-0.207c-0.089-0.127-0.177-0.353-0.089-0.47c0.089-0.118,0.127-0.207,0.049-0.236   c-0.077-0.029,0.04-0.166-0.068-0.234c-0.107-0.069-0.177-0.256-0.137-0.344c0.038-0.088,0.049-0.235-0.079-0.235   c-0.094,0-0.231-0.054-0.348-0.065c-0.021-0.002-0.044-0.004-0.063-0.002c-0.018,0.002-0.033,0.004-0.049,0.009   c-0.065,0.021-0.123,0.038-0.176,0.054c-0.051,0.016-0.095,0.029-0.138,0.045c-0.035,0.011-0.079-0.009-0.128-0.044   c-0.077-0.056-0.167-0.153-0.245-0.231c-0.058-0.057-0.137-0.128-0.196-0.197c-0.024-0.026-0.046-0.053-0.062-0.078   c-0.033-0.055-0.044-0.104-0.007-0.137l0.007-0.006c0.077-0.072,0.042-0.098,0-0.148c-0.005-0.006-0.011-0.014-0.018-0.021   C76.008,37.577,76.027,37.501,76.058,37.435z M75.76,33.261c0.031,0,0.061,0.002,0.092,0.003c-0.007,0.009-0.013,0.019-0.022,0.028   c-0.015,0.015-0.027,0.029-0.037,0.043c-0.051,0.068-0.05,0.115-0.158,0.115c-0.129,0,0.158,0.204,0.009,0.204   c-0.148,0-0.194,0.186-0.045,0.167c0.148-0.019,0.138,0.047-0.02,0.121s-0.409,0.074-0.483,0.195s-0.354,0.111-0.354,0.223   c0,0.112-0.047,0.521-0.26,0.447c-0.215-0.075-0.261-0.289-0.345-0.419s0.047-0.27-0.036-0.316   c-0.084-0.046,0.186-0.26,0.093-0.195c-0.093,0.065-0.242-0.028-0.112-0.056c0.131-0.027,0.084-0.158-0.009-0.131   c-0.028,0.01-0.056,0.011-0.079,0.007C74.522,33.419,75.123,33.261,75.76,33.261z M72.428,35.224   c0.011,0.012,0.018,0.024,0.018,0.039c0,0.041,0.026,0.117,0.056,0.162c0.028,0.045,0.061,0.058,0.064-0.031   c0.01-0.178,0.01-0.289,0.083-0.289c0.072,0,0.015-0.086-0.015-0.209c0.08-0.114,0.166-0.225,0.259-0.329   c0.056,0.02,0.113,0.05,0.161,0.083c0.063,0.045,0.106,0.094,0.106,0.13c0,0.046,0.015,0.081,0.044,0.099   c0.022,0.014,0.055,0.016,0.096,0.004c0.075-0.023,0.034-0.089,0.083-0.107c0.01-0.004,0.025-0.006,0.047-0.005   c0.033,0.003,0.056,0.021,0.073,0.048c0.045,0.072,0.05,0.205,0.104,0.26c0.075,0.074,0.215,0.102,0.187,0.167   c-0.008,0.02,0.006,0.047,0.027,0.076c0.049,0.069,0.13,0.147,0.02,0.147c-0.008,0-0.014,0-0.02,0   c-0.146,0.004-0.216,0.049-0.251,0.111c-0.024,0.042-0.04,0.033-0.066,0.01c-0.014-0.014-0.031-0.031-0.054-0.047   c-0.016-0.011-0.04-0.013-0.066-0.01c-0.095,0.012-0.229,0.084-0.157,0.084c0.047,0,0.113,0.034,0.157,0.085   c0.043,0.052,0.062,0.119,0.01,0.185c-0.003,0.004-0.007,0.01-0.01,0.014c-0.062,0.071-0.125,0.1-0.179,0.125   c-0.035,0.018-0.065,0.032-0.09,0.057c-0.026,0.025-0.044,0.059-0.061,0.09c-0.026,0.046-0.055,0.086-0.116,0.086   c-0.103,0-0.158,0.232-0.158,0.317c0,0.025-0.017,0.05-0.042,0.071c-0.056,0.049-0.149,0.091-0.182,0.143   c-0.045,0.074-0.009,0.148-0.009,0.278c0,0.073-0.014,0.099-0.046,0.083c-0.025-0.014-0.063-0.055-0.112-0.12   c-0.111-0.148-0.288-0.103-0.381-0.065c-0.02,0.008-0.038,0.012-0.058,0.012C71.966,36.342,72.138,35.746,72.428,35.224z" >
        <rect x="14.053" y="59.471" fill="none" width="71.895" height="8.691" >
        <path
            d="M84.508,26.571H15.492c-1.344,0-2.439,1.097-2.439,2.438V52v7.471v8.691v0.463v2.365c0,1.342,1.096,2.439,2.439,2.439   h69.016c1.244,0,2.264-0.945,2.41-2.148h0.029V70.99v-2.828v-8.691v-4.814V29.009C86.947,27.667,85.852,26.571,84.508,26.571z    M71.913,34.861c0.008-0.016,0.016-0.031,0.024-0.045c0.052-0.09,0.107-0.175,0.165-0.26c0.004-0.004,0.008-0.01,0.011-0.015   c0.026-0.038,0.052-0.075,0.078-0.112l0.001,0.002c0.068-0.094,0.141-0.186,0.216-0.273c-0.001,0-0.001,0-0.002,0   c0.026-0.03,0.051-0.063,0.077-0.092c0.001,0,0.002-0.001,0.002-0.001v-0.001c0.045-0.05,0.092-0.1,0.141-0.146   c0.018-0.019,0.037-0.037,0.055-0.055c0.031-0.029,0.063-0.059,0.094-0.088c0.024-0.021,0.049-0.043,0.074-0.064   c0.019-0.018,0.038-0.032,0.057-0.049c0.01-0.008,0.02-0.016,0.03-0.023c0.005-0.004,0.01-0.009,0.015-0.013   c0.018-0.015,0.036-0.03,0.055-0.046c0.027-0.021,0.055-0.041,0.083-0.063c0.01-0.008,0.02-0.016,0.029-0.022   c0.03-0.022,0.06-0.043,0.091-0.063c0.705-0.498,1.564-0.792,2.492-0.792c2.393,0,4.338,1.946,4.338,4.338   s-1.945,4.338-4.338,4.338c-2.392,0-4.338-1.946-4.338-4.338c0-0.768,0.201-1.489,0.553-2.114   C71.915,34.862,71.913,34.861,71.913,34.861z M17.646,32.238c0-0.742,0.605-1.347,1.347-1.347h14.098   c0.739,0,1.347,0.604,1.347,1.347v9.313c0,0.739-0.607,1.347-1.347,1.347H18.993c-0.741,0-1.347-0.607-1.347-1.347V32.238z    M85.947,68.162H14.053v-8.691h71.895V68.162z" >
        <path
            d="M72.389,37.03c0.05,0.065,0.087,0.106,0.112,0.12c0.032,0.016,0.046-0.01,0.046-0.083c0-0.13-0.036-0.204,0.009-0.278   c0.032-0.052,0.126-0.094,0.182-0.143c0.025-0.021,0.042-0.046,0.042-0.071c0-0.085,0.056-0.317,0.158-0.317   c0.062,0,0.09-0.04,0.116-0.086c0.017-0.031,0.034-0.064,0.061-0.09c0.024-0.024,0.055-0.039,0.09-0.057   c0.054-0.025,0.117-0.054,0.179-0.125c0.003-0.004,0.007-0.01,0.01-0.014c0.052-0.065,0.033-0.133-0.01-0.185   c-0.044-0.051-0.11-0.085-0.157-0.085c-0.071,0,0.063-0.072,0.157-0.084c0.026-0.003,0.051-0.001,0.066,0.01   c0.022,0.016,0.04,0.033,0.054,0.047c0.026,0.023,0.042,0.032,0.066-0.01c0.035-0.063,0.105-0.107,0.251-0.111   c0.006,0,0.012,0,0.02,0c0.11,0,0.029-0.078-0.02-0.147c-0.021-0.029-0.035-0.057-0.027-0.076c0.028-0.065-0.111-0.093-0.187-0.167   c-0.054-0.055-0.059-0.188-0.104-0.26c-0.018-0.027-0.04-0.045-0.073-0.048c-0.021-0.001-0.037,0.001-0.047,0.005   c-0.049,0.019-0.008,0.084-0.083,0.107c-0.041,0.012-0.073,0.01-0.096-0.004c-0.029-0.018-0.044-0.053-0.044-0.099   c0-0.036-0.044-0.085-0.106-0.13c-0.048-0.033-0.105-0.063-0.161-0.083c-0.093,0.104-0.179,0.215-0.259,0.329   c0.029,0.123,0.087,0.209,0.015,0.209c-0.073,0-0.073,0.111-0.083,0.289c-0.004,0.089-0.036,0.076-0.064,0.031   c-0.029-0.045-0.056-0.121-0.056-0.162c0-0.015-0.007-0.027-0.018-0.039c-0.29,0.521-0.462,1.118-0.478,1.752   c0.02,0,0.038-0.004,0.058-0.012C72.101,36.927,72.277,36.881,72.389,37.03z" >
        <path
            d="M76.826,35.521c0.035-0.016,0.074-0.027,0.114-0.027c0.145,0-0.011-0.244,0.011-0.322c0.022-0.074,0.012-0.26-0.125-0.256   c-0.006,0-0.012,0-0.019,0.002c-0.101-0.012,0.089,0.343-0.044,0.398c-0.134,0.056-0.123,0.045-0.1,0.188   C76.68,35.607,76.74,35.558,76.826,35.521z" >
        <path
            d="M74.081,33.822c-0.13,0.027,0.02,0.121,0.112,0.056c0.093-0.064-0.177,0.149-0.093,0.195   c0.083,0.047-0.048,0.187,0.036,0.316s0.13,0.344,0.345,0.419c0.213,0.074,0.26-0.335,0.26-0.447c0-0.111,0.279-0.102,0.354-0.223   s0.326-0.121,0.483-0.195s0.168-0.14,0.02-0.121c-0.149,0.019-0.104-0.167,0.045-0.167c0.149,0-0.138-0.204-0.009-0.204   c0.108,0,0.107-0.047,0.158-0.115c0.01-0.014,0.022-0.028,0.037-0.043c0.01-0.01,0.016-0.02,0.022-0.028   c-0.031-0.001-0.061-0.003-0.092-0.003c-0.637,0-1.237,0.158-1.767,0.437c0.023,0.004,0.051,0.003,0.079-0.007   C74.165,33.664,74.212,33.794,74.081,33.822z" >
        <path
            d="M76.058,37.644c0.042,0.051,0.077,0.076,0,0.148l-0.007,0.006c-0.037,0.033-0.026,0.082,0.007,0.137   c0.016,0.025,0.037,0.052,0.062,0.078c0.06,0.069,0.139,0.141,0.196,0.197c0.078,0.078,0.168,0.176,0.245,0.231   c0.049,0.035,0.093,0.055,0.128,0.044c0.043-0.016,0.087-0.029,0.138-0.045c0.053-0.016,0.11-0.033,0.176-0.054   c0.016-0.005,0.031-0.007,0.049-0.009c0.02-0.002,0.042,0,0.063,0.002c0.116,0.012,0.254,0.065,0.348,0.065   c0.128,0,0.117,0.147,0.079,0.235c-0.04,0.088,0.029,0.274,0.137,0.344c0.108,0.068-0.009,0.205,0.068,0.234   c0.078,0.029,0.04,0.118-0.049,0.236c-0.088,0.117,0,0.343,0.089,0.47c0.049,0.07,0.049,0.138,0.061,0.207   c0.003,0.024,0.009,0.05,0.018,0.075c1.028-0.684,1.709-1.848,1.709-3.173c0-1.081-0.453-2.058-1.178-2.753   c-0.004,0.006-0.007,0.011-0.012,0.016c-0.078,0.089-0.225,0.226-0.176,0.344c0.049,0.117,0.147,0.049,0.265,0.029   s0.127,0.059,0.029,0.107s-0.216,0-0.128,0.088c0.088,0.089-0.011,0.08-0.128,0.08s0.02,0.117-0.059,0.186s-0.156-0.02-0.265-0.02   c-0.03,0-0.055,0.004-0.076,0.01c-0.056,0.014-0.098,0.039-0.188,0.039c-0.128,0-0.079-0.088-0.157-0.088   c-0.077,0-0.059,0.146-0.127,0.215c-0.06,0.061-0.157,0.135-0.26,0.173c-0.015,0.005-0.028,0.01-0.044,0.014   c-0.008,0.002-0.014,0.003-0.02,0.005c-0.102,0.021-0.131-0.01-0.177,0.074c-0.05,0.088-0.079,0.195,0.01,0.273   c0.074,0.066,0.024,0.152-0.058,0.18c-0.016,0.004-0.033,0.008-0.051,0.008c-0.104,0-0.126-0.02-0.215-0.021H76.55   c-0.098,0-0.049,0.089-0.098,0.177c-0.05,0.088,0.02,0.127,0.02,0.226c0,0.05,0.04,0.054,0.089,0.053s0.107-0.009,0.146,0.016   c0.041,0.026,0.083,0.024,0.119,0.012c0.033-0.011,0.063-0.032,0.087-0.051c0.049-0.039,0.078-0.029,0.069-0.098   c-0.007-0.05,0.026-0.069,0.068-0.075c0.016-0.003,0.033-0.004,0.049-0.004c0.005,0,0.011,0,0.015-0.002   c0.047-0.016,0.061-0.105,0.034-0.203c-0.029-0.108,0.157-0.069,0.313-0.069c0.157,0,0.177,0.108,0.284,0.147   c0.055,0.02,0.084,0.054,0.101,0.102c0.015,0.046,0.018,0.104,0.018,0.173c0,0.138,0.107-0.05,0.127-0.108   c0.021-0.059,0.06-0.195-0.02-0.195c-0.06,0-0.086-0.018-0.125-0.057c-0.012-0.013-0.025-0.025-0.042-0.042   c-0.062-0.063-0.019-0.101,0.042-0.063c0.006,0.004,0.011,0.009,0.018,0.014c0.068,0.059,0.099,0.089,0.147,0.147   s0.088,0.117,0.137,0.215c0.049,0.099,0.088,0.197,0.166,0.157c0.079-0.039-0.009-0.187,0.069-0.177s0.167-0.049,0.206-0.127   s0.01-0.098,0.01-0.216s0.216-0.187,0.246-0.108c0.028,0.079,0.155-0.049,0.244-0.098c0.088-0.049,0.118,0,0.068,0.049   c-0.049,0.049-0.029,0.138,0.079,0.197c0.106,0.059,0.147,0.156,0.039,0.166s-0.227-0.059-0.313-0.059   c-0.089,0-0.167,0.02-0.256,0.059c-0.088,0.039-0.137,0.127-0.166,0.226c-0.03,0.099,0.039,0.128,0.206,0.128   c0.166,0,0.303,0.02,0.294,0.107c-0.01,0.088-0.108,0.176-0.206,0.186c-0.099,0.01-0.284-0.029-0.393-0.049   c-0.107-0.02-0.234-0.049-0.274,0.039c-0.039,0.089-0.177,0.01-0.274-0.049c-0.014-0.008-0.03-0.016-0.047-0.023   c-0.101-0.046-0.234-0.086-0.219-0.211c0.021-0.147-0.117-0.079-0.303-0.079c-0.095,0-0.152,0.022-0.211,0.044   c-0.02,0.009-0.041,0.017-0.063,0.023c-0.039,0.012-0.082,0.021-0.138,0.021c-0.034,0-0.063,0.002-0.087,0.006   c-0.1,0.019-0.128,0.066-0.207,0.082c-0.021,0.004-0.041,0.011-0.059,0.02c-0.065,0.034-0.108,0.098-0.108,0.166   c0,0.089-0.068,0.196-0.167,0.207c-0.091,0.009-0.122,0.215-0.166,0.298c-0.004,0.006-0.007,0.011-0.011,0.016   c-0.016,0.022-0.035,0.054-0.051,0.087c-0.03,0.066-0.05,0.142-0.018,0.188C76.047,37.63,76.053,37.638,76.058,37.644z" >
        <path
            d="M74.527,38.824c-0.168-0.055-0.325-0.055-0.325-0.176s0.019-0.242-0.102-0.242c-0.087,0-0.178-0.066-0.28-0.138   c-0.041-0.028-0.084-0.059-0.13-0.085c-0.068-0.04-0.131-0.058-0.188-0.065c-0.044-0.005-0.085-0.005-0.12-0.003   c-0.026,0.002-0.051,0.003-0.074,0.003c-0.03,0-0.068,0.005-0.104,0.007c-0.058,0.002-0.116,0.001-0.15-0.029   c-0.009-0.008-0.018-0.02-0.023-0.033c-0.036-0.093-0.112,0-0.186,0.047c-0.029,0.018-0.068,0.021-0.107,0.018   c-0.062-0.002-0.127-0.017-0.172,0c-0.02,0.008-0.043,0.009-0.064,0.004c-0.059-0.014-0.118-0.066-0.158-0.133   c-0.057-0.094,0.036-0.196-0.103-0.196c-0.14,0-0.041-0.312-0.041-0.404c0-0.072-0.127,0.021-0.227,0.11   c0.016,0.145,0.041,0.286,0.074,0.426c0.027,0.011,0.058,0.018,0.091,0.018c0.158,0,0.168,0.213,0.214,0.288   c0.022,0.034,0.085,0.036,0.149,0.037c0.072,0,0.147-0.003,0.167,0.037c0.037,0.075,0.102,0.187,0,0.214   c-0.103,0.027-0.056,0.168-0.157,0.214c-0.004,0.001-0.007,0.003-0.01,0.005c-0.055,0.031-0.073,0.107-0.068,0.188   c0.396,0.707,1.011,1.275,1.754,1.613c0.003-0.016,0.005-0.032,0.007-0.049c0.009-0.157,0.12-0.12,0.12-0.204   c0-0.083,0.111-0.177,0.232-0.195c0.122-0.019,0.232-0.187,0.242-0.362c0.009-0.177,0.186-0.363,0.27-0.484   c0.084-0.12,0.046-0.176-0.12-0.278C74.77,38.871,74.694,38.88,74.527,38.824z" >
        <path
            d="M77.579,34.925c0.069-0.049,0.128,0.061,0.158,0.157c0.022,0.075,0.061,0.009,0.109-0.028   c0.015-0.012,0.03-0.021,0.047-0.021c0.069,0,0.098-0.088,0.176-0.167c0.079-0.078-0.068-0.176-0.028-0.283   c0.039-0.108,0.156-0.157,0.187-0.266c0.012-0.045,0.055-0.064,0.095-0.064c-0.119-0.109-0.247-0.21-0.381-0.303   c-0.031,0.028-0.064,0.061-0.095,0.096c-0.069,0.077-0.131,0.162-0.169,0.213c-0.078,0.107-0.216,0.196-0.313,0.304   c-0.099,0.108-0.02,0.304,0.068,0.441C77.521,35.142,77.511,34.975,77.579,34.925z" >
    </g>
</svg>